<svg id="svg" version="1.1" xmlns="http://www.w3.org/2000/svg" xmlns:xlink="http://www.w3.org/1999/xlink" width="400" height="400" viewBox="0, 0, 400,400"><g id="svgg"><path id="path0" d="M193.600 96.656 C 157.326 99.971,123.121 126.153,109.014 161.400 C 108.398 162.940,107.650 164.762,107.352 165.449 C 102.713 176.152,99.782 201.454,101.635 214.800 C 101.895 216.670,102.145 218.740,102.191 219.400 C 102.237 220.060,102.381 220.870,102.510 221.200 C 102.639 221.530,102.925 222.790,103.147 224.000 C 103.595 226.446,104.582 230.674,104.921 231.600 C 105.042 231.930,105.708 233.820,106.402 235.800 C 109.040 243.335,110.929 247.530,114.572 253.950 C 127.452 276.650,151.249 295.468,176.400 302.842 C 177.830 303.261,179.540 303.766,180.200 303.965 C 197.498 309.163,221.041 308.291,240.000 301.750 C 255.951 296.248,275.548 283.573,281.197 275.107 C 282.117 273.728,284.415 270.982,286.303 269.004 C 288.191 267.026,290.793 264.056,292.085 262.404 C 293.377 260.752,294.651 259.128,294.917 258.795 C 295.414 258.172,297.473 255.118,298.194 253.933 C 299.511 251.768,303.198 244.856,303.603 243.793 C 304.393 241.714,303.599 242.950,301.609 246.897 C 296.262 257.503,284.294 272.046,283.019 269.487 C 281.771 266.982,270.976 267.212,250.200 270.187 C 204.472 276.735,192.897 275.157,185.719 261.400 C 180.091 250.612,184.460 227.411,197.398 199.381 C 197.707 198.711,199.395 194.841,201.147 190.781 C 202.900 186.722,205.626 180.430,207.205 176.800 C 211.428 167.091,215.629 156.580,217.915 150.000 C 231.510 110.873,223.773 93.898,193.600 96.656 M239.719 169.988 C 232.759 170.114,227.879 170.362,227.643 170.600 C 226.844 171.406,219.600 191.404,219.600 192.803 C 219.600 192.960,220.005 193.018,220.500 192.930 C 222.620 192.557,240.403 192.619,240.446 193.000 C 240.565 194.036,240.275 195.271,239.133 198.600 C 237.371 203.736,231.530 218.527,228.973 224.331 C 227.778 227.042,226.800 229.476,226.800 229.740 C 226.800 231.322,224.496 231.656,214.241 231.558 L 204.346 231.463 203.550 232.631 C 202.799 233.736,198.800 241.781,198.800 242.189 C 198.800 242.294,198.238 243.599,197.551 245.090 C 196.865 246.580,195.861 248.970,195.321 250.400 C 194.781 251.830,193.983 253.382,193.549 253.848 C 192.417 255.062,190.868 255.011,225.223 254.895 L 256.245 254.790 256.991 252.695 C 257.400 251.543,258.983 247.540,260.506 243.800 C 263.950 235.350,264.082 234.865,262.707 235.767 C 261.523 236.542,227.181 236.574,226.473 235.800 C 226.076 235.366,226.497 234.270,241.907 195.600 C 252.271 169.596,252.288 169.551,251.747 169.688 C 251.556 169.737,246.144 169.872,239.719 169.988 " stroke="none" fill="#0d83e0" fill-rule="evenodd"></path><path id="path1" d="M0.000 200.000 L 0.000 400.000 200.000 400.000 L 400.000 400.000 400.000 200.000 L 400.000 0.000 200.000 0.000 L 0.000 0.000 0.000 200.000 M211.159 96.969 C 222.580 100.918,227.072 111.306,224.407 127.600 C 223.578 132.664,222.995 135.520,222.410 137.379 C 222.199 138.051,221.723 139.680,221.352 141.000 C 219.730 146.776,215.527 158.674,213.552 163.078 C 213.139 164.001,212.800 164.948,212.800 165.183 C 212.800 165.419,212.626 165.923,212.414 166.305 C 212.202 166.687,211.652 167.900,211.192 169.000 C 210.732 170.100,210.186 171.405,209.978 171.900 C 209.770 172.395,209.431 173.205,209.225 173.700 C 209.019 174.195,208.299 175.828,207.625 177.328 C 206.951 178.828,206.400 180.273,206.400 180.539 C 206.400 180.805,206.164 181.377,205.875 181.811 C 205.587 182.245,204.746 184.040,204.007 185.800 C 203.267 187.560,202.514 189.171,202.331 189.380 C 202.149 189.589,202.000 189.986,202.000 190.262 C 202.000 190.538,201.480 191.897,200.845 193.282 C 198.830 197.675,198.400 198.710,198.400 199.160 C 198.400 199.402,198.243 199.600,198.051 199.600 C 197.859 199.600,197.590 200.305,197.452 201.166 C 197.314 202.028,197.049 202.793,196.863 202.866 C 196.676 202.940,196.391 203.540,196.229 204.199 C 195.868 205.672,196.165 205.412,197.189 203.362 C 198.036 201.665,198.370 202.576,197.622 204.543 C 197.357 205.239,197.387 205.646,197.722 205.898 C 198.370 206.386,200.000 206.441,200.000 205.975 C 200.000 205.385,209.340 205.500,209.937 206.097 C 210.558 206.718,211.370 205.686,210.800 205.000 C 210.593 204.751,210.600 204.329,210.817 203.987 C 211.069 203.588,211.190 203.560,211.194 203.900 C 211.206 204.901,212.026 204.368,212.258 203.209 C 212.389 202.554,212.745 201.812,213.048 201.560 C 213.352 201.308,213.600 200.626,213.600 200.044 C 213.600 199.462,214.050 198.323,214.600 197.514 C 215.150 196.705,215.600 195.803,215.600 195.510 C 215.600 195.218,215.841 194.623,216.136 194.189 C 216.431 193.755,217.702 190.880,218.962 187.800 C 222.788 178.442,224.028 175.436,224.409 174.600 C 224.609 174.160,225.220 172.763,225.767 171.495 C 227.020 168.588,225.717 168.838,240.300 168.710 C 251.909 168.608,252.801 168.649,252.800 169.290 C 252.800 170.004,250.994 174.866,249.268 178.800 C 249.027 179.350,248.178 181.510,247.382 183.600 C 246.586 185.690,245.679 187.967,245.367 188.660 C 245.055 189.354,244.800 190.062,244.800 190.234 C 244.800 190.406,244.463 191.279,244.051 192.174 C 243.639 193.068,242.890 194.970,242.386 196.400 C 241.882 197.830,241.296 199.226,241.083 199.503 C 240.871 199.779,240.678 200.725,240.655 201.605 C 240.632 202.485,240.433 203.144,240.212 203.071 C 239.399 202.800,238.736 205.741,239.484 206.300 C 239.857 206.579,239.942 206.800,239.676 206.800 C 239.414 206.800,239.200 207.329,239.200 207.976 C 239.200 208.623,239.020 209.264,238.800 209.400 C 238.580 209.536,238.400 209.851,238.400 210.099 C 238.400 210.739,240.051 208.891,240.208 208.075 C 240.280 207.704,240.353 206.995,240.369 206.500 L 240.400 205.600 275.057 205.600 L 309.713 205.600 309.497 200.300 C 309.286 195.142,308.302 187.814,307.604 186.200 C 307.413 185.760,307.141 184.680,306.998 183.800 C 306.756 182.310,306.264 180.549,304.985 176.600 C 304.107 173.889,301.767 168.673,299.027 163.317 C 296.742 158.852,296.575 158.387,297.720 159.670 C 298.442 160.478,299.290 161.648,299.604 162.270 C 299.918 162.891,300.638 164.120,301.203 165.000 C 302.091 166.382,303.919 170.178,306.116 175.200 C 308.172 179.898,310.210 187.534,311.431 195.115 C 312.168 199.694,312.058 218.684,311.276 221.800 C 311.055 222.680,310.569 224.840,310.195 226.600 C 309.213 231.233,307.054 238.151,305.515 241.600 C 300.072 253.792,294.977 261.288,285.971 270.354 C 284.525 271.809,282.738 273.900,281.999 275.000 C 279.767 278.324,274.183 283.547,268.199 287.907 C 263.739 291.157,252.490 297.412,247.000 299.694 C 244.228 300.847,238.265 303.032,236.600 303.506 C 228.731 305.746,226.573 306.206,219.200 307.211 C 215.450 307.723,197.497 307.722,194.000 307.211 C 192.570 307.002,190.140 306.651,188.600 306.432 C 187.060 306.213,185.170 305.856,184.400 305.638 C 183.630 305.421,181.560 304.861,179.800 304.392 C 174.059 302.864,173.047 302.542,169.350 301.061 C 167.343 300.258,165.589 299.600,165.453 299.600 C 165.120 299.600,158.091 296.113,154.600 294.217 C 151.716 292.650,145.914 288.983,144.563 287.873 C 144.143 287.529,142.290 286.117,140.444 284.737 C 131.915 278.357,118.056 262.681,114.672 255.584 C 114.518 255.263,114.007 254.370,113.535 253.600 C 111.158 249.724,106.369 239.246,105.764 236.600 C 105.613 235.940,105.364 235.220,105.210 235.000 C 105.057 234.780,104.626 233.520,104.253 232.200 C 103.879 230.880,103.401 229.251,103.190 228.579 C 101.979 224.733,100.434 215.040,99.925 208.096 C 96.313 158.844,128.588 112.738,176.672 98.458 C 189.196 94.738,202.985 94.143,211.159 96.969 M199.594 203.300 C 199.597 203.685,199.420 204.000,199.200 204.000 C 198.980 204.000,198.800 204.270,198.800 204.600 C 198.800 204.930,198.620 205.200,198.400 205.200 C 198.180 205.200,198.000 204.930,198.000 204.600 C 198.000 204.270,198.180 204.000,198.400 204.000 C 198.620 204.000,198.803 203.415,198.806 202.700 C 198.811 201.714,198.906 201.545,199.200 202.000 C 199.413 202.330,199.591 202.915,199.594 203.300 M243.345 202.600 C 243.218 202.930,242.954 203.200,242.757 203.200 C 242.561 203.200,242.400 203.650,242.400 204.200 C 242.400 205.044,242.213 205.200,241.200 205.200 C 240.540 205.200,240.000 205.020,240.000 204.800 C 240.000 204.580,240.265 204.400,240.588 204.400 C 240.911 204.400,241.575 203.860,242.063 203.200 C 243.001 201.932,243.732 201.590,243.345 202.600 M245.200 203.400 C 245.200 203.730,245.020 204.000,244.800 204.000 C 244.580 204.000,244.400 204.270,244.400 204.600 C 244.400 204.959,244.039 205.195,243.500 205.187 L 242.600 205.173 243.500 204.423 C 243.995 204.010,244.400 203.476,244.400 203.236 C 244.400 202.996,244.580 202.800,244.800 202.800 C 245.020 202.800,245.200 203.070,245.200 203.400 M238.055 207.620 C 237.757 208.294,237.617 208.951,237.745 209.078 C 238.015 209.348,238.882 207.247,238.712 206.736 C 238.649 206.548,238.354 206.946,238.055 207.620 " stroke="none" fill="#f3f3f3" fill-rule="evenodd"></path><path id="path2" d="M194.705 95.883 C 195.202 95.979,195.922 95.975,196.305 95.875 C 196.687 95.775,196.280 95.696,195.400 95.701 C 194.520 95.705,194.207 95.787,194.705 95.883 M203.600 96.188 C 207.953 96.838,208.694 96.879,207.000 96.373 C 206.340 96.177,204.450 95.927,202.800 95.818 L 199.800 95.621 203.600 96.188 M190.500 96.276 C 190.885 96.376,191.515 96.376,191.900 96.276 C 192.285 96.175,191.970 96.093,191.200 96.093 C 190.430 96.093,190.115 96.175,190.500 96.276 M209.800 97.346 C 210.240 97.692,210.888 97.980,211.240 97.987 C 211.593 97.994,212.741 98.457,213.791 99.016 C 214.842 99.574,215.796 99.938,215.911 99.823 C 216.136 99.598,211.646 97.449,210.000 96.994 C 209.028 96.725,209.022 96.735,209.800 97.346 M217.688 101.419 C 218.286 102.045,218.882 102.452,219.011 102.322 C 219.140 102.193,218.651 101.681,217.923 101.184 L 216.600 100.280 217.688 101.419 M221.030 105.172 C 222.391 107.423,223.176 109.278,223.838 111.800 L 224.363 113.800 224.134 112.000 C 223.868 109.902,222.106 105.839,220.839 104.400 C 220.127 103.592,220.164 103.740,221.030 105.172 M224.551 119.600 C 224.551 122.130,224.616 123.165,224.696 121.900 C 224.775 120.635,224.775 118.565,224.696 117.300 C 224.616 116.035,224.551 117.070,224.551 119.600 M223.647 128.847 C 223.387 130.421,223.252 131.785,223.347 131.880 C 223.441 131.975,223.735 130.769,224.000 129.200 C 224.265 127.631,224.400 126.266,224.300 126.167 C 224.201 126.068,223.907 127.274,223.647 128.847 M222.431 134.831 C 221.848 137.546,222.162 137.860,222.800 135.200 C 223.070 134.076,223.197 133.064,223.084 132.951 C 222.971 132.838,222.677 133.683,222.431 134.831 M221.429 138.629 C 221.281 139.215,221.238 139.772,221.332 139.866 C 221.427 139.960,221.624 139.558,221.771 138.971 C 221.919 138.385,221.962 137.828,221.868 137.734 C 221.773 137.640,221.576 138.042,221.429 138.629 M220.440 142.240 C 220.210 143.073,220.094 143.827,220.182 143.915 C 220.270 144.003,220.530 143.393,220.760 142.560 C 220.990 141.727,221.106 140.973,221.018 140.885 C 220.930 140.797,220.670 141.407,220.440 142.240 M218.080 149.480 C 217.488 151.409,217.775 151.695,218.400 149.800 C 218.664 149.001,218.802 148.269,218.707 148.174 C 218.612 148.078,218.330 148.666,218.080 149.480 M216.471 154.071 C 215.985 155.419,215.655 156.589,215.737 156.671 C 215.819 156.752,216.287 155.720,216.776 154.376 C 217.266 153.033,217.596 151.863,217.510 151.777 C 217.423 151.690,216.956 152.722,216.471 154.071 M214.867 158.380 C 214.633 159.051,214.527 159.600,214.631 159.600 C 214.901 159.600,215.656 157.522,215.457 157.324 C 215.367 157.233,215.101 157.708,214.867 158.380 M213.644 161.244 C 213.398 161.951,213.263 162.596,213.344 162.678 C 213.426 162.759,213.721 162.274,214.000 161.600 C 214.279 160.926,214.414 160.281,214.300 160.167 C 214.186 160.053,213.891 160.538,213.644 161.244 M208.692 173.306 C 206.794 177.758,204.059 184.083,202.616 187.363 C 201.173 190.643,200.079 193.413,200.185 193.518 C 200.291 193.624,200.542 193.281,200.743 192.755 C 200.943 192.230,202.684 188.200,204.610 183.800 C 209.198 173.320,212.442 165.509,212.277 165.344 C 212.204 165.271,210.591 168.854,208.692 173.306 M239.625 169.100 C 226.857 169.222,226.779 169.236,226.217 171.474 C 226.077 172.032,225.618 173.233,225.197 174.144 C 224.775 175.055,223.862 177.330,223.166 179.200 C 222.470 181.070,221.450 183.770,220.899 185.200 C 219.417 189.045,218.002 192.972,218.016 193.200 C 218.048 193.718,219.173 191.313,219.186 190.700 C 219.194 190.315,219.380 190.000,219.600 190.000 C 219.820 190.000,220.000 189.684,220.000 189.297 C 220.000 188.910,220.433 187.780,220.963 186.785 C 221.493 185.789,223.140 181.777,224.625 177.869 C 226.193 173.737,227.607 170.610,228.002 170.399 C 228.737 170.006,252.001 169.649,252.000 170.031 C 252.000 170.158,251.540 171.393,250.978 172.776 C 250.417 174.159,250.034 175.368,250.129 175.462 C 250.386 175.719,252.400 170.517,252.400 169.596 C 252.400 169.158,252.175 168.842,251.900 168.894 C 251.625 168.945,246.101 169.038,239.625 169.100 M305.218 174.848 C 305.208 175.204,305.538 176.554,305.951 177.848 C 311.745 195.989,311.955 216.154,306.520 232.400 C 304.609 238.112,302.768 242.428,302.353 242.171 C 302.164 242.054,302.113 242.228,302.239 242.559 C 302.366 242.889,302.094 243.562,301.635 244.055 C 301.176 244.548,300.800 245.187,300.800 245.475 C 300.800 245.764,300.601 246.000,300.357 246.000 C 300.114 246.000,300.017 246.267,300.142 246.592 C 300.272 246.931,299.861 247.740,299.184 248.481 C 298.103 249.666,298.000 249.703,298.000 248.913 C 298.000 248.437,298.180 247.936,298.400 247.800 C 298.620 247.664,298.800 247.373,298.800 247.153 C 298.800 246.336,297.946 247.319,297.340 248.834 C 296.995 249.695,296.546 250.400,296.342 250.400 C 296.139 250.400,296.175 250.021,296.423 249.557 C 296.764 248.920,296.755 248.602,296.387 248.257 C 296.020 247.913,295.853 247.927,295.711 248.316 C 295.562 248.725,292.565 248.825,281.261 248.799 C 273.418 248.781,266.505 248.774,265.900 248.783 C 265.175 248.794,264.800 249.014,264.800 249.427 C 264.800 249.874,264.486 250.017,263.700 249.927 C 263.095 249.857,262.642 249.620,262.692 249.400 C 262.899 248.504,260.686 248.409,259.930 249.281 C 259.039 250.308,258.507 249.944,259.079 248.699 C 262.167 241.987,264.846 234.400,264.128 234.400 C 263.259 234.400,261.200 235.441,261.200 235.880 C 261.200 236.575,261.629 236.535,262.770 235.736 C 264.090 234.812,263.914 235.438,260.506 243.800 C 258.983 247.540,257.400 251.543,256.991 252.695 L 256.245 254.790 225.223 254.895 C 190.868 255.011,192.420 255.063,193.541 253.848 C 194.248 253.082,196.794 247.129,196.798 246.231 C 196.799 246.029,197.059 245.576,197.376 245.226 C 197.693 244.876,198.179 243.692,198.456 242.595 C 198.733 241.498,199.171 240.330,199.429 240.000 C 199.951 239.333,200.649 236.023,200.167 236.502 C 199.894 236.773,196.209 244.593,195.092 247.274 C 194.846 247.864,194.364 248.444,194.022 248.562 C 193.680 248.680,193.077 249.007,192.683 249.288 C 192.067 249.728,191.857 249.659,191.192 248.800 C 190.752 248.232,190.414 248.036,190.409 248.345 C 190.403 248.723,190.030 248.837,189.199 248.715 C 188.398 248.597,187.792 248.767,187.377 249.226 C 186.676 250.000,185.200 249.815,185.200 248.953 C 185.200 248.204,184.805 248.257,184.117 249.100 C 182.777 250.741,184.005 239.194,185.824 233.054 C 186.679 230.166,186.451 229.409,185.567 232.200 C 181.091 246.326,182.387 258.754,189.028 265.378 C 193.412 269.752,195.313 270.673,203.200 272.241 C 206.528 272.903,222.732 273.068,223.930 272.452 C 224.298 272.262,226.744 271.984,229.364 271.833 C 231.984 271.683,234.447 271.389,234.838 271.180 C 235.228 270.971,236.471 270.800,237.600 270.800 C 238.729 270.800,239.979 270.625,240.379 270.411 C 240.778 270.198,242.836 269.901,244.952 269.752 C 247.069 269.604,248.800 269.328,248.800 269.141 C 248.800 268.953,249.655 268.789,250.700 268.776 C 251.745 268.763,253.500 268.582,254.600 268.375 C 255.700 268.167,258.310 267.826,260.400 267.617 C 262.490 267.408,265.730 267.064,267.600 266.854 C 275.527 265.963,281.771 267.043,283.030 269.525 C 284.304 272.035,296.304 257.419,301.609 246.897 C 303.599 242.950,304.393 241.714,303.603 243.793 C 303.198 244.856,299.511 251.768,298.194 253.933 C 297.473 255.118,295.414 258.172,294.917 258.795 C 294.651 259.128,293.377 260.752,292.085 262.404 C 290.793 264.056,288.191 267.026,286.303 269.004 C 284.415 270.982,282.117 273.728,281.197 275.107 C 276.367 282.346,260.152 293.556,246.063 299.396 C 244.041 300.234,242.463 300.996,242.556 301.089 C 243.138 301.671,257.586 294.522,263.600 290.676 C 271.404 285.684,279.441 278.704,282.108 274.600 C 282.680 273.720,284.883 271.211,287.003 269.025 C 294.622 261.167,300.031 253.158,304.738 242.764 C 313.214 224.049,314.324 199.229,307.528 180.400 C 305.550 174.917,305.236 174.164,305.218 174.848 M248.653 178.653 C 248.055 180.108,247.659 181.393,247.773 181.507 C 247.888 181.621,248.104 181.374,248.254 180.957 C 248.404 180.541,248.865 179.322,249.278 178.248 C 250.416 175.291,249.894 175.629,248.653 178.653 M245.831 185.631 C 245.024 187.647,244.457 189.391,244.572 189.506 C 244.687 189.621,244.895 189.374,245.034 188.957 C 245.173 188.541,245.819 186.877,246.471 185.261 C 247.122 183.645,247.575 182.242,247.477 182.143 C 247.379 182.045,246.638 183.614,245.831 185.631 M240.475 199.086 C 229.018 227.853,226.344 234.800,226.724 234.800 C 226.883 234.800,227.343 233.855,227.747 232.700 C 228.151 231.545,228.719 230.060,229.009 229.400 C 229.299 228.740,230.199 226.490,231.010 224.400 C 234.307 215.895,235.308 213.344,235.797 212.200 C 236.079 211.540,236.942 209.380,237.714 207.400 C 238.485 205.420,240.320 200.769,241.790 197.065 C 243.260 193.360,244.382 190.249,244.284 190.151 C 244.186 190.052,242.472 194.073,240.475 199.086 M199.250 195.050 C 198.986 195.629,198.862 196.195,198.974 196.307 C 199.086 196.419,199.368 196.011,199.600 195.400 C 200.149 193.957,199.873 193.682,199.250 195.050 M198.065 197.817 C 197.395 199.288,197.523 199.602,198.247 198.265 C 198.586 197.640,198.788 197.054,198.696 196.963 C 198.605 196.871,198.321 197.256,198.065 197.817 M196.945 200.243 C 196.794 200.659,195.332 204.330,193.696 208.400 C 190.425 216.537,186.279 228.648,186.523 229.352 C 186.609 229.599,187.170 228.180,187.770 226.200 C 189.748 219.678,192.137 213.161,195.595 204.860 C 196.726 202.142,197.555 199.821,197.436 199.702 C 197.316 199.583,197.095 199.826,196.945 200.243 M237.126 235.500 C 241.376 235.564,248.216 235.564,252.326 235.499 C 256.437 235.434,252.960 235.381,244.600 235.381 C 236.240 235.382,232.877 235.435,237.126 235.500 M118.667 261.131 C 119.070 261.863,119.654 262.673,119.965 262.931 C 120.725 263.561,119.978 262.220,118.778 260.800 L 117.933 259.800 118.667 261.131 M120.842 264.300 C 125.027 269.727,135.200 280.807,135.200 279.939 C 135.200 279.805,133.432 277.903,131.271 275.712 C 129.111 273.521,125.862 269.899,124.052 267.664 C 122.242 265.429,120.657 263.600,120.531 263.600 C 120.405 263.600,120.545 263.915,120.842 264.300 M135.614 280.253 C 135.630 280.640,142.607 286.262,145.958 288.589 C 151.288 292.290,160.178 297.193,165.320 299.266 C 171.430 301.730,177.253 303.720,179.600 304.147 C 181.491 304.491,180.127 303.898,177.000 303.017 C 164.099 299.382,146.592 289.838,137.108 281.269 C 136.279 280.520,135.606 280.063,135.614 280.253 M240.400 301.567 C 240.070 301.756,238.027 302.420,235.859 303.042 C 233.692 303.664,232.119 304.240,232.365 304.322 C 232.850 304.483,242.000 301.698,242.000 301.388 C 242.000 301.088,241.054 301.193,240.400 301.567 M181.800 304.770 C 182.240 304.945,183.500 305.191,184.600 305.316 L 186.600 305.544 184.600 305.010 C 183.500 304.717,182.240 304.471,181.800 304.464 L 181.000 304.451 181.800 304.770 M226.400 305.418 C 224.090 305.927,222.607 306.356,223.104 306.371 C 224.073 306.402,231.254 304.879,231.554 304.580 C 231.854 304.279,230.784 304.453,226.400 305.418 M187.600 306.000 C 188.150 306.176,189.230 306.317,190.000 306.314 L 191.400 306.308 189.800 305.977 C 187.663 305.535,186.196 305.550,187.600 306.000 M195.800 307.203 C 197.807 307.531,204.279 307.729,203.967 307.453 C 203.875 307.372,201.550 307.209,198.800 307.091 C 195.581 306.953,194.512 306.993,195.800 307.203 M212.600 307.200 L 209.800 307.459 212.600 307.494 C 214.140 307.514,216.300 307.390,217.400 307.218 L 219.400 306.907 217.400 306.924 C 216.300 306.934,214.140 307.058,212.600 307.200 " stroke="none" fill="#9bb1c0" fill-rule="evenodd"></path><path id="path3" d="M192.069 96.189 C 187.585 96.670,183.439 97.451,180.172 98.432 C 179.496 98.634,178.664 98.800,178.324 98.800 C 177.015 98.800,167.951 102.003,164.100 103.827 C 156.650 107.354,155.138 108.118,153.800 109.026 C 153.010 109.562,152.286 110.000,152.190 110.000 C 152.094 110.000,150.617 110.932,148.908 112.071 C 131.714 123.528,119.472 137.501,110.338 156.094 C 109.502 157.796,108.703 159.686,108.562 160.294 C 108.420 160.902,108.066 161.784,107.774 162.253 C 106.947 163.582,104.016 172.936,102.623 178.693 C 100.208 188.676,99.457 204.686,100.923 214.920 C 101.296 217.517,101.600 219.822,101.600 220.044 C 101.600 220.266,101.797 220.325,102.038 220.177 C 102.281 220.026,102.371 219.439,102.241 218.853 C 99.397 206.070,102.132 177.492,107.352 165.449 C 107.650 164.762,108.398 162.940,109.014 161.400 C 122.430 127.879,153.732 102.677,188.800 97.162 C 193.548 96.416,204.260 96.487,207.739 97.288 C 209.317 97.651,210.300 97.740,210.057 97.497 C 208.841 96.281,198.329 95.517,192.069 96.189 M220.652 187.346 C 220.294 188.102,220.000 189.009,220.000 189.360 C 220.000 189.712,219.820 190.000,219.600 190.000 C 219.380 190.000,219.200 190.276,219.200 190.613 C 219.200 190.951,218.741 192.131,218.181 193.237 C 217.621 194.343,216.619 196.722,215.956 198.524 C 214.484 202.523,210.018 213.957,209.584 214.839 C 209.411 215.191,208.624 217.037,207.836 218.941 C 206.172 222.960,205.136 225.347,203.746 228.360 C 203.198 229.548,202.484 231.348,202.160 232.360 C 201.835 233.372,201.328 234.650,201.031 235.200 C 200.438 236.302,199.818 238.800,200.139 238.800 C 200.251 238.800,200.830 237.765,201.427 236.500 C 202.025 235.235,202.930 233.584,203.440 232.832 L 204.367 231.463 214.252 231.558 C 224.433 231.655,226.800 231.320,226.800 229.778 C 226.800 229.405,228.621 225.011,230.603 220.600 C 231.711 218.134,237.939 202.066,239.131 198.600 C 240.275 195.271,240.565 194.037,240.446 193.000 C 240.403 192.619,222.620 192.557,220.500 192.930 C 219.384 193.127,219.383 193.167,220.613 189.398 C 221.698 186.074,221.717 185.103,220.652 187.346 M102.214 222.600 C 102.368 223.700,102.667 224.780,102.880 225.000 C 103.128 225.258,103.166 224.689,102.986 223.400 C 102.832 222.300,102.533 221.220,102.320 221.000 C 102.072 220.742,102.034 221.311,102.214 222.600 M103.428 227.600 C 103.572 228.590,103.857 229.670,104.062 230.000 C 104.304 230.391,104.342 229.972,104.172 228.800 C 104.028 227.810,103.743 226.730,103.538 226.400 C 103.296 226.009,103.258 226.428,103.428 227.600 M104.400 231.003 C 104.400 231.712,107.300 240.015,107.616 240.210 C 108.003 240.449,107.736 239.523,106.001 234.600 C 104.779 231.136,104.400 230.284,104.400 231.003 M226.207 235.188 C 225.583 236.199,228.644 236.400,244.626 236.400 C 257.618 236.400,261.200 236.292,261.200 235.900 C 261.200 235.508,257.754 235.400,245.300 235.400 C 236.555 235.400,228.739 235.259,227.931 235.088 C 227.014 234.893,226.366 234.931,226.207 235.188 M199.211 240.187 C 198.943 240.509,198.793 240.980,198.877 241.232 C 198.961 241.484,199.245 241.220,199.507 240.645 C 200.040 239.474,199.937 239.312,199.211 240.187 M108.481 242.591 C 108.959 243.576,109.405 244.328,109.471 244.262 C 109.701 244.032,108.276 240.800,107.945 240.800 C 107.761 240.800,108.002 241.606,108.481 242.591 M186.800 263.451 C 186.800 264.415,191.731 269.342,193.811 270.457 C 202.575 275.154,215.823 275.092,250.200 270.193 C 266.741 267.836,271.897 267.411,277.136 267.974 C 282.036 268.500,282.945 268.354,280.674 267.405 C 278.950 266.685,267.326 266.560,264.416 267.231 C 263.435 267.457,261.095 267.798,259.216 267.990 C 257.337 268.181,251.300 268.984,245.800 269.774 C 240.300 270.563,234.270 271.387,232.400 271.604 C 230.530 271.821,227.470 272.178,225.600 272.397 C 220.180 273.032,206.705 272.938,203.200 272.241 C 195.394 270.689,193.490 269.778,189.135 265.515 C 187.851 264.258,186.800 263.329,186.800 263.451 " stroke="none" fill="#53cdf8" fill-rule="evenodd"></path><path id="path4" d="M194.400 95.293 C 147.147 98.076,102.567 143.722,100.206 191.741 C 100.026 195.395,100.026 195.394,100.595 190.600 C 103.587 165.367,114.034 143.674,131.776 125.850 C 159.959 97.536,207.856 86.143,221.113 104.600 C 221.587 105.260,221.980 105.590,221.987 105.332 C 222.008 104.556,218.122 100.562,216.054 99.235 C 211.309 96.190,203.454 94.760,194.400 95.293 M224.698 117.800 C 224.790 120.660,224.927 123.180,225.001 123.400 C 225.286 124.240,225.139 115.721,224.842 114.200 C 224.657 113.248,224.598 114.705,224.698 117.800 M224.501 125.400 C 224.505 126.280,224.587 126.593,224.683 126.095 C 224.779 125.598,224.775 124.878,224.675 124.495 C 224.575 124.113,224.496 124.520,224.501 125.400 M223.646 130.867 C 223.621 131.234,223.496 131.864,223.370 132.267 C 223.152 132.962,223.163 132.963,223.597 132.287 C 223.848 131.896,223.973 131.266,223.873 130.887 C 223.711 130.268,223.688 130.266,223.646 130.867 M299.027 163.317 C 301.767 168.673,304.107 173.889,304.985 176.600 C 306.264 180.549,306.756 182.310,306.998 183.800 C 307.141 184.680,307.413 185.760,307.604 186.200 C 308.302 187.814,309.286 195.142,309.497 200.300 L 309.713 205.600 275.057 205.600 L 240.400 205.600 240.369 206.500 C 240.353 206.995,240.280 207.704,240.208 208.075 C 240.051 208.891,238.400 210.739,238.400 210.099 C 238.400 209.851,238.580 209.536,238.800 209.400 C 239.020 209.264,239.200 208.623,239.200 207.976 C 239.200 207.329,239.414 206.800,239.676 206.800 C 239.939 206.800,239.826 206.561,239.426 206.268 C 238.816 205.823,238.776 205.593,239.175 204.846 C 239.437 204.356,239.586 203.758,239.505 203.516 C 239.425 203.274,238.970 204.131,238.495 205.420 C 237.674 207.651,237.561 209.172,238.366 207.158 C 238.577 206.631,238.761 206.413,238.775 206.674 C 238.830 207.707,237.959 209.380,237.637 208.859 C 237.417 208.503,237.160 208.753,236.800 209.673 C 236.266 211.035,236.088 211.478,234.217 216.079 C 233.609 217.575,233.260 218.989,233.428 219.279 C 233.593 219.566,233.577 219.663,233.393 219.495 C 233.209 219.328,232.267 221.218,231.300 223.695 C 230.334 226.173,229.308 228.740,229.022 229.400 C 227.381 233.181,227.054 234.462,227.632 234.833 C 228.342 235.288,262.253 235.108,263.500 234.642 C 264.193 234.384,264.400 234.451,264.400 234.932 C 264.400 235.645,260.803 244.953,259.079 248.699 C 258.507 249.944,259.039 250.308,259.930 249.281 C 260.686 248.409,262.899 248.504,262.692 249.400 C 262.642 249.620,263.095 249.857,263.700 249.927 C 264.486 250.017,264.800 249.874,264.800 249.427 C 264.800 249.014,265.175 248.794,265.900 248.783 C 266.505 248.774,273.418 248.781,281.261 248.799 C 292.565 248.825,295.562 248.725,295.711 248.316 C 295.853 247.927,296.020 247.913,296.387 248.257 C 296.755 248.602,296.764 248.920,296.423 249.557 C 296.175 250.021,296.139 250.400,296.342 250.400 C 296.546 250.400,296.995 249.695,297.340 248.834 C 297.946 247.319,298.800 246.336,298.800 247.153 C 298.800 247.373,298.620 247.664,298.400 247.800 C 298.180 247.936,298.000 248.437,298.000 248.913 C 298.000 249.703,298.103 249.666,299.184 248.481 C 299.861 247.740,300.272 246.931,300.142 246.592 C 300.017 246.267,300.114 246.000,300.357 246.000 C 300.601 246.000,300.800 245.764,300.800 245.475 C 300.800 245.187,301.176 244.548,301.635 244.055 C 302.094 243.562,302.366 242.889,302.239 242.559 C 302.113 242.228,302.164 242.054,302.353 242.171 C 303.170 242.676,307.502 230.364,308.748 223.995 C 310.180 216.673,310.510 212.370,310.295 203.857 C 310.034 193.526,309.214 188.522,306.137 178.490 C 305.579 176.669,305.236 174.884,305.374 174.523 C 305.640 173.831,302.992 167.785,301.203 165.000 C 300.638 164.120,299.918 162.891,299.604 162.270 C 299.290 161.648,298.442 160.478,297.720 159.670 C 296.575 158.387,296.742 158.852,299.027 163.317 M251.854 168.706 C 252.103 168.868,252.397 169.360,252.507 169.800 C 252.661 170.413,252.718 170.343,252.754 169.500 C 252.787 168.699,252.610 168.402,252.100 168.406 C 251.656 168.410,251.566 168.520,251.854 168.706 M226.396 170.100 C 225.960 170.815,225.602 171.530,225.601 171.688 C 225.601 171.847,225.180 172.927,224.666 174.088 C 223.600 176.499,222.219 179.817,218.959 187.800 C 217.701 190.880,216.431 193.755,216.136 194.189 C 215.841 194.623,215.600 195.218,215.600 195.510 C 215.600 195.803,215.150 196.705,214.600 197.514 C 214.050 198.323,213.600 199.462,213.600 200.044 C 213.600 200.626,213.352 201.308,213.048 201.560 C 212.745 201.812,212.389 202.554,212.258 203.209 C 212.026 204.368,211.206 204.901,211.194 203.900 C 211.190 203.560,211.069 203.588,210.817 203.987 C 210.600 204.329,210.593 204.751,210.800 205.000 C 211.370 205.686,210.558 206.718,209.937 206.097 C 209.340 205.500,200.000 205.385,200.000 205.975 C 200.000 206.441,198.370 206.386,197.722 205.898 C 197.387 205.646,197.357 205.239,197.622 204.543 C 198.370 202.576,198.036 201.665,197.189 203.362 C 196.230 205.282,195.801 205.733,196.200 204.400 C 197.655 199.539,191.591 214.354,189.405 221.000 C 185.539 232.754,184.071 239.030,183.776 245.068 C 183.574 249.208,183.616 249.712,184.117 249.100 C 184.805 248.257,185.200 248.204,185.200 248.953 C 185.200 249.815,186.676 250.000,187.377 249.226 C 187.792 248.767,188.398 248.597,189.199 248.715 C 190.030 248.837,190.403 248.723,190.409 248.345 C 190.414 248.036,190.752 248.232,191.192 248.800 C 191.857 249.659,192.067 249.728,192.683 249.288 C 193.077 249.007,193.680 248.680,194.022 248.562 C 194.364 248.444,194.846 247.864,195.092 247.274 C 195.338 246.683,196.334 244.490,197.305 242.400 C 203.179 229.759,205.470 224.657,207.836 218.941 C 208.624 217.037,209.411 215.191,209.584 214.839 C 210.149 213.692,214.694 201.933,216.788 196.200 C 218.739 190.859,219.271 189.451,222.572 180.903 C 223.358 178.869,224.000 177.103,224.000 176.977 C 224.000 176.851,224.445 175.775,224.990 174.585 C 225.534 173.395,226.090 171.980,226.226 171.440 C 226.778 169.240,226.884 169.222,239.625 169.100 L 251.400 168.987 239.294 168.894 L 227.188 168.800 226.396 170.100 M250.067 175.980 C 249.833 176.651,249.727 177.200,249.831 177.200 C 250.101 177.200,250.856 175.122,250.657 174.924 C 250.567 174.833,250.301 175.308,250.067 175.980 M305.600 175.140 C 305.600 175.415,305.847 176.126,306.150 176.720 C 306.452 177.314,307.108 179.019,307.607 180.509 C 308.106 182.000,308.599 183.134,308.703 183.030 C 308.807 182.926,308.307 181.167,307.591 179.121 C 306.340 175.542,305.600 174.062,305.600 175.140 M205.700 181.300 C 205.270 182.475,205.280 182.526,205.812 181.824 C 206.321 181.152,206.621 180.000,206.288 180.000 C 206.226 180.000,205.961 180.585,205.700 181.300 M309.063 185.000 C 309.201 185.880,309.465 186.960,309.650 187.400 C 309.864 187.908,309.895 187.615,309.737 186.600 C 309.599 185.720,309.335 184.640,309.150 184.200 C 308.936 183.692,308.905 183.985,309.063 185.000 M310.080 189.000 C 310.080 189.440,310.224 190.250,310.400 190.800 C 310.654 191.592,310.720 191.633,310.720 191.000 C 310.720 190.560,310.576 189.750,310.400 189.200 C 310.146 188.408,310.080 188.367,310.080 189.000 M201.265 191.417 C 200.595 192.888,200.723 193.202,201.447 191.865 C 201.786 191.240,201.988 190.654,201.896 190.563 C 201.805 190.471,201.521 190.856,201.265 191.417 M242.444 195.244 C 242.198 195.951,242.066 196.600,242.152 196.685 C 242.238 196.771,242.509 196.262,242.756 195.556 C 243.002 194.849,243.134 194.200,243.048 194.115 C 242.962 194.029,242.691 194.538,242.444 195.244 M311.273 195.800 C 311.258 196.460,311.395 197.720,311.577 198.600 C 312.013 200.706,312.050 198.814,311.620 196.400 C 311.380 195.050,311.293 194.900,311.273 195.800 M99.758 201.400 C 99.758 204.480,99.821 205.687,99.897 204.082 C 99.973 202.478,99.973 199.958,99.896 198.482 C 99.819 197.007,99.757 198.320,99.758 201.400 M241.250 198.250 C 240.986 198.829,240.862 199.395,240.974 199.507 C 241.086 199.619,241.368 199.211,241.600 198.600 C 242.149 197.157,241.873 196.882,241.250 198.250 M198.074 198.598 C 197.823 199.149,197.772 199.600,197.962 199.600 C 198.294 199.600,198.892 197.959,198.649 197.716 C 198.584 197.650,198.325 198.047,198.074 198.598 M240.044 201.246 C 239.626 202.446,239.736 203.200,240.330 203.200 C 240.486 203.200,240.632 202.480,240.655 201.600 C 240.706 199.673,240.611 199.619,240.044 201.246 M196.917 201.615 C 196.671 202.267,196.614 202.800,196.791 202.800 C 197.120 202.800,197.751 200.817,197.501 200.568 C 197.426 200.492,197.163 200.964,196.917 201.615 M198.806 202.700 C 198.803 203.415,198.620 204.000,198.400 204.000 C 198.180 204.000,198.000 204.270,198.000 204.600 C 198.000 204.930,198.180 205.200,198.400 205.200 C 198.620 205.200,198.800 204.930,198.800 204.600 C 198.800 204.270,198.980 204.000,199.200 204.000 C 199.708 204.000,199.708 202.786,199.200 202.000 C 198.906 201.545,198.811 201.714,198.806 202.700 M242.063 203.200 C 241.575 203.860,240.911 204.400,240.588 204.400 C 240.265 204.400,240.000 204.580,240.000 204.800 C 240.000 205.020,240.540 205.200,241.200 205.200 C 242.213 205.200,242.400 205.044,242.400 204.200 C 242.400 203.650,242.561 203.200,242.757 203.200 C 242.954 203.200,243.218 202.930,243.345 202.600 C 243.732 201.590,243.001 201.932,242.063 203.200 M244.400 203.236 C 244.400 203.476,243.995 204.010,243.500 204.423 L 242.600 205.173 243.500 205.187 C 244.039 205.195,244.400 204.959,244.400 204.600 C 244.400 204.270,244.580 204.000,244.800 204.000 C 245.020 204.000,245.200 203.730,245.200 203.400 C 245.200 203.070,245.020 202.800,244.800 202.800 C 244.580 202.800,244.400 202.996,244.400 203.236 M100.257 211.200 C 100.371 213.290,100.621 215.720,100.814 216.600 C 101.196 218.341,100.966 214.955,100.367 210.000 C 100.113 207.906,100.092 208.139,100.257 211.200 M311.301 219.400 C 311.305 220.280,311.387 220.593,311.483 220.095 C 311.579 219.598,311.575 218.878,311.475 218.495 C 311.375 218.113,311.296 218.520,311.301 219.400 M101.466 220.400 C 101.595 221.610,101.847 222.960,102.025 223.400 C 102.542 224.675,102.427 223.262,101.798 220.600 L 101.231 218.200 101.466 220.400 M310.200 225.200 C 310.048 225.891,310.007 226.541,310.109 226.642 C 310.211 226.744,310.409 226.253,310.550 225.550 C 310.691 224.847,310.731 224.198,310.641 224.108 C 310.550 224.017,310.352 224.509,310.200 225.200 M102.629 226.200 C 102.763 227.080,103.044 228.070,103.254 228.400 C 103.713 229.124,103.286 226.628,102.741 225.400 C 102.498 224.854,102.463 225.108,102.629 226.200 M103.600 229.919 C 103.600 230.300,104.048 231.814,105.032 234.757 C 105.135 235.064,105.297 235.236,105.393 235.140 C 105.489 235.044,105.209 233.812,104.770 232.402 C 103.977 229.853,103.600 229.054,103.600 229.919 M105.783 236.800 C 106.646 239.862,112.277 252.056,113.263 253.000 C 113.493 253.220,112.607 251.240,111.294 248.600 C 109.982 245.960,108.231 242.090,107.404 240.000 C 105.897 236.195,105.253 234.924,105.783 236.800 M116.583 258.600 C 117.738 260.501,120.821 264.800,121.029 264.800 C 121.133 264.800,120.193 263.315,118.941 261.500 C 116.567 258.059,115.327 256.534,116.583 258.600 M289.775 266.100 L 288.600 267.400 289.900 266.225 C 290.615 265.579,291.200 264.994,291.200 264.925 C 291.200 264.616,290.870 264.888,289.775 266.100 M122.678 267.200 C 123.499 268.300,124.323 269.200,124.509 269.200 C 124.695 269.200,124.089 268.300,123.161 267.200 C 122.234 266.100,121.409 265.200,121.330 265.200 C 121.250 265.200,121.856 266.100,122.678 267.200 M270.705 266.683 C 271.202 266.779,271.922 266.775,272.305 266.675 C 272.687 266.575,272.280 266.496,271.400 266.501 C 270.520 266.505,270.207 266.587,270.705 266.683 M258.505 267.887 C 259.114 267.979,260.014 267.977,260.505 267.882 C 260.997 267.787,260.500 267.711,259.400 267.714 C 258.300 267.717,257.897 267.795,258.505 267.887 M249.505 269.083 C 250.002 269.179,250.722 269.175,251.105 269.075 C 251.487 268.975,251.080 268.896,250.200 268.901 C 249.320 268.905,249.007 268.987,249.505 269.083 M225.100 272.282 C 225.595 272.378,226.405 272.378,226.900 272.282 C 227.395 272.187,226.990 272.109,226.000 272.109 C 225.010 272.109,224.605 272.187,225.100 272.282 M130.600 276.000 C 132.571 277.980,134.273 279.600,134.383 279.600 C 134.493 279.600,132.971 277.980,131.000 276.000 C 129.029 274.020,127.327 272.400,127.217 272.400 C 127.107 272.400,128.629 274.020,130.600 276.000 M277.385 280.100 L 275.400 282.200 277.500 280.215 C 278.655 279.123,279.600 278.178,279.600 278.115 C 279.600 277.817,279.229 278.149,277.385 280.100 M136.362 281.326 C 136.982 282.104,140.000 284.568,140.000 284.296 C 140.000 284.202,139.055 283.337,137.900 282.374 C 136.745 281.410,136.053 280.939,136.362 281.326 M184.400 305.594 C 184.730 305.811,185.435 305.991,185.967 305.994 C 187.251 306.002,186.925 305.775,185.200 305.458 C 184.215 305.277,183.978 305.318,184.400 305.594 M191.200 306.805 C 191.530 307.016,192.325 307.191,192.967 307.194 C 194.514 307.202,194.177 306.971,192.200 306.668 C 191.110 306.501,190.791 306.545,191.200 306.805 M219.700 307.076 C 220.085 307.176,220.715 307.176,221.100 307.076 C 221.485 306.975,221.170 306.893,220.400 306.893 C 219.630 306.893,219.315 306.975,219.700 307.076 M205.505 307.883 C 206.002 307.979,206.722 307.975,207.105 307.875 C 207.487 307.775,207.080 307.696,206.200 307.701 C 205.320 307.705,205.007 307.787,205.505 307.883 " stroke="none" fill="#c2d2dc" fill-rule="evenodd"></path></g></svg>